<?xml version="1.0" standalone="no"?>
<!DOCTYPE svg PUBLIC "-//W3C//DTD SVG 20010904//EN"
 "http://www.w3.org/TR/2001/REC-SVG-20010904/DTD/svg10.dtd">
<svg version="1.0" xmlns="http://www.w3.org/2000/svg"
 width="260.000000pt" height="260.000000pt" viewBox="0 0 260.000000 260.000000"
 preserveAspectRatio="xMidYMid meet">
<metadata>
Created by potrace 1.11, written by Peter Selinger 2001-2013
</metadata>
<g transform="translate(0.000000,260.000000) scale(0.100000,-0.100000)"
fill="#000000" stroke="none">
<path d="M1756 2064 c-139 -34 -283 -149 -348 -279 -87 -173 -89 -360 -6 -534
40 -84 158 -205 240 -244 191 -91 426 -69 595 57 23 17 42 36 42 41 0 6 -10
23 -23 38 l-23 29 -49 -38 c-184 -141 -430 -134 -589 17 -106 100 -156 214
-157 355 0 245 157 446 379 485 111 20 237 -14 320 -86 l38 -33 -27 -27 c-67
-66 0 -159 84 -117 71 36 61 140 -21 222 -110 110 -288 154 -455 114z"/>
<path d="M380 2020 l0 -40 70 0 70 0 0 -465 0 -465 -70 0 -70 0 0 -40 0 -40
195 0 195 0 0 40 0 39 -77 3 -78 3 -3 161 -2 162 152 4 c165 5 202 14 285 70
159 107 176 373 33 502 -99 90 -171 106 -467 106 l-233 0 0 -40z m535 -64 c73
-31 114 -66 141 -122 23 -47 26 -63 23 -133 -4 -69 -8 -85 -34 -123 -64 -90
-145 -120 -316 -116 l-114 3 -3 245 c-1 134 0 251 3 259 8 20 245 10 300 -13z"/>
<path d="M370 525 l0 -65 945 0 945 0 0 65 0 65 -945 0 -945 0 0 -65z"/>
</g>
</svg>
