<svg xmlns="http://www.w3.org/2000/svg" width="27.438" height="27.44" viewBox="0 0 27.438 27.44">
  <metadata><?xpacket begin="﻿" id="W5M0MpCehiHzreSzNTczkc9d"?>
<x:xmpmeta xmlns:x="adobe:ns:meta/" x:xmptk="Adobe XMP Core 5.6-c142 79.160924, 2017/07/13-01:06:39        ">
   <rdf:RDF xmlns:rdf="http://www.w3.org/1999/02/22-rdf-syntax-ns#">
      <rdf:Description rdf:about=""/>
   </rdf:RDF>
</x:xmpmeta>
                                                                                                    
                                                                                                    
                                                                                                    
                                                                                                    
                                                                                                    
                                                                                                    
                                                                                                    
                                                                                                    
                                                                                                    
                                                                                                    
                                                                                                    
                                                                                                    
                                                                                                    
                                                                                                    
                                                                                                    
                                                                                                    
                                                                                                    
                                                                                                    
                                                                                                    
                                                                                                    
                           
<?xpacket end="w"?></metadata>
<defs>
    <style>
      .cls-1 {
        fill: #ac1e23;
        fill-rule: evenodd;
      }
    </style>
  </defs>
  <path id="icon_insta" data-name="icon insta" class="cls-1" d="M648.99,4803.14a4.573,4.573,0,1,1,3.232-1.34A4.38,4.38,0,0,1,648.99,4803.14Zm0-11.6a7.006,7.006,0,1,0,4.982,2.05A6.778,6.778,0,0,0,648.99,4791.54Zm7.322-1.93a1.644,1.644,0,1,0,1.16.48A1.585,1.585,0,0,0,656.312,4789.61Zm-4.072-2.3q0.643,0.015,1.723.06a16.3,16.3,0,0,1,1.84.17,7.328,7.328,0,0,1,1.277.33,4.715,4.715,0,0,1,1.571,1.04,4.66,4.66,0,0,1,1.036,1.57,7.192,7.192,0,0,1,.33,1.28,14.327,14.327,0,0,1,.179,1.84c0.029,0.72.047,1.29,0.053,1.72s0.006,1.06,0,1.89-0.009,1.28-.009,1.36,0,0.54.009,1.37,0.006,1.45,0,1.88-0.024,1-.053,1.72a13.966,13.966,0,0,1-.179,1.84,6.97,6.97,0,0,1-.33,1.28,4.564,4.564,0,0,1-1.036,1.57,4.715,4.715,0,0,1-1.571,1.04,7.328,7.328,0,0,1-1.277.33,14.078,14.078,0,0,1-1.84.18c-0.72.03-1.294,0.04-1.723,0.05s-1.057.01-1.884,0-1.283-.01-1.366-0.01-0.539,0-1.366.01-1.456.01-1.884,0-1-.02-1.724-0.05a14.043,14.043,0,0,1-1.839-.18,7.3,7.3,0,0,1-1.277-.33,4.705,4.705,0,0,1-1.571-1.04,4.549,4.549,0,0,1-1.036-1.57,7.045,7.045,0,0,1-.331-1.28,13.815,13.815,0,0,1-.178-1.84c-0.03-.72-0.048-1.29-0.054-1.72s-0.006-1.05,0-1.88,0.009-1.29.009-1.37,0-.54-0.009-1.36-0.006-1.46,0-1.89,0.024-1,.054-1.72a14.167,14.167,0,0,1,.178-1.84,7.272,7.272,0,0,1,.331-1.28,4.645,4.645,0,0,1,1.036-1.57,4.705,4.705,0,0,1,1.571-1.04,7.3,7.3,0,0,1,1.277-.33,16.258,16.258,0,0,1,1.839-.17q1.08-.045,1.724-0.06h1.884c0.827,0.01,1.282.01,1.366,0.01s0.538,0,1.366-.01h1.884Zm10.376,5.6a7.587,7.587,0,0,0-7.965-7.96q-1.572-.09-5.661-0.09t-5.661.09a7.586,7.586,0,0,0-7.965,7.96c-0.06,1.05-.089,2.94-0.089,5.66s0.029,4.61.089,5.66a7.6,7.6,0,0,0,7.965,7.97q1.571,0.09,5.661.09t5.661-.09a7.6,7.6,0,0,0,7.965-7.97c0.059-1.05.089-2.93,0.089-5.66s-0.03-4.61-.089-5.66h0Z" transform="translate(-635.281 -4784.84)"/>
</svg>
