<svg xmlns="http://www.w3.org/2000/svg" width="27.438" height="27.44" viewBox="0 0 27.438 27.44">
  <metadata><?xpacket begin="﻿" id="W5M0MpCehiHzreSzNTczkc9d"?>
<x:xmpmeta xmlns:x="adobe:ns:meta/" x:xmptk="Adobe XMP Core 5.6-c142 79.160924, 2017/07/13-01:06:39        ">
   <rdf:RDF xmlns:rdf="http://www.w3.org/1999/02/22-rdf-syntax-ns#">
      <rdf:Description rdf:about=""/>
   </rdf:RDF>
</x:xmpmeta>
                                                                                                    
                                                                                                    
                                                                                                    
                                                                                                    
                                                                                                    
                                                                                                    
                                                                                                    
                                                                                                    
                                                                                                    
                                                                                                    
                                                                                                    
                                                                                                    
                                                                                                    
                                                                                                    
                                                                                                    
                                                                                                    
                                                                                                    
                                                                                                    
                                                                                                    
                                                                                                    
                           
<?xpacket end="w"?></metadata>
<defs>
    <style>
      .cls-1 {
        fill: #ac1e23;
        fill-rule: evenodd;
      }
    </style>
  </defs>
  <path id="icon_fb" data-name="icon fb" class="cls-1" d="M535.418,4784.86a5.154,5.154,0,0,0-5.143,5.14v17.14a5.154,5.154,0,0,0,5.143,5.15h9.5v-10.63h-3.571v-4.14h3.571v-3.06a5.391,5.391,0,0,1,1.456-4.03,5.315,5.315,0,0,1,3.884-1.43,23.484,23.484,0,0,1,3.179.16v3.7l-2.179.02a2.058,2.058,0,0,0-1.634.5,2.264,2.264,0,0,0-.42,1.49v2.65h4.09l-0.536,4.14H549.2v10.63h3.358a5.154,5.154,0,0,0,5.143-5.15V4790a5.154,5.154,0,0,0-5.143-5.14H535.418Z" transform="translate(-530.281 -4784.84)"/>
</svg>
