<svg xmlns="http://www.w3.org/2000/svg" width="24.375" height="32" viewBox="0 0 24.375 32">
  <metadata><?xpacket begin="﻿" id="W5M0MpCehiHzreSzNTczkc9d"?>
<x:xmpmeta xmlns:x="adobe:ns:meta/" x:xmptk="Adobe XMP Core 5.6-c142 79.160924, 2017/07/13-01:06:39        ">
   <rdf:RDF xmlns:rdf="http://www.w3.org/1999/02/22-rdf-syntax-ns#">
      <rdf:Description rdf:about=""/>
   </rdf:RDF>
</x:xmpmeta>
                                                                                                    
                                                                                                    
                                                                                                    
                                                                                                    
                                                                                                    
                                                                                                    
                                                                                                    
                                                                                                    
                                                                                                    
                                                                                                    
                                                                                                    
                                                                                                    
                                                                                                    
                                                                                                    
                                                                                                    
                                                                                                    
                                                                                                    
                                                                                                    
                                                                                                    
                                                                                                    
                           
<?xpacket end="w"?></metadata>
<defs>
    <style>
      .cls-1 {
        fill: #ac1e23;
        fill-rule: evenodd;
      }
    </style>
  </defs>
  <path id="icon_yelp" data-name="icon yelp" class="cls-1" d="M598.856,4805.38a1.5,1.5,0,0,0-.67-0.52,1.582,1.582,0,0,0-.884-0.07,1.262,1.262,0,0,0-.705.44c-0.7.84-1.06,1.25-1.072,1.25q-2.7,3.195-3.232,3.86a5.052,5.052,0,0,0-.607.84,1.1,1.1,0,0,0-.072.46,1.379,1.379,0,0,0,.3.65,7.371,7.371,0,0,0,2.9,1.59,7.487,7.487,0,0,0,3.241.67,1.121,1.121,0,0,0,.911-0.71c0.059-.16.1-1.97,0.107-5.45v-2.27A1.14,1.14,0,0,0,598.856,4805.38Zm-2.643-4.6a1.239,1.239,0,0,0-.634-0.55l-1.5-.6q-0.786-.33-2.054-0.84a36.22,36.22,0,0,0-3.607-1.38,1.069,1.069,0,0,0-1,.57,5.749,5.749,0,0,0-.536,2.23,14.641,14.641,0,0,0-.018,2.97,4.275,4.275,0,0,0,.3,1.34,1.135,1.135,0,0,0,.964.64q0.3,0,5.215-1.57l2.143-.7a1.249,1.249,0,0,0,.928-1.25A1.539,1.539,0,0,0,596.213,4800.78Zm14.563,5.08a3.027,3.027,0,0,0-.839-0.37c-0.464-.16-1.9-0.63-4.322-1.42-1.4-.46-2.113-0.7-2.125-0.71a1.231,1.231,0,0,0-1.482.46,1.537,1.537,0,0,0-.348.82,1.21,1.21,0,0,0,.205.82l0.839,1.38q3.036,4.95,3.286,5.12a1.068,1.068,0,0,0,1.125.13,7.271,7.271,0,0,0,2.42-2.27,7.13,7.13,0,0,0,1.634-2.87,1.075,1.075,0,0,0-.393-1.09h0Zm-12.036-16.98c-0.227-3.42-.357-5.24-0.393-5.45a1.093,1.093,0,0,0-.875-0.81,9.557,9.557,0,0,0-4.009.57,9.1,9.1,0,0,0-3.706,1.6,1.118,1.118,0,0,0-.339,1.1l6.75,10.68c0.667,1.05,1.345,1.47,2.036,1.27,0.7-.24,1.024-0.97.964-2.18Q599.08,4794.025,598.74,4788.88Zm12.25,8.66a7.733,7.733,0,0,0-1.446-3,7.16,7.16,0,0,0-2.2-2.38,1.114,1.114,0,0,0-1.16.04,3.738,3.738,0,0,0-.608.69c-0.3.4-1.19,1.61-2.678,3.65-0.881,1.2-1.328,1.81-1.34,1.82a1.254,1.254,0,0,0,0,1.55,1.477,1.477,0,0,0,.661.57,1.176,1.176,0,0,0,.822.07l-0.018.04c0.285-.1.827-0.23,1.625-0.41q5.607-1.365,5.875-1.54a1.085,1.085,0,0,0,.464-1.05v-0.05Z" transform="translate(-586.813 -4782.56)"/>
</svg>
