<?xml version="1.0" encoding="utf-8"?>
<!-- Generator: Adobe Illustrator 22.0.1, SVG Export Plug-In . SVG Version: 6.00 Build 0)  -->
<svg version="1.1" id="logo" xmlns="http://www.w3.org/2000/svg" xmlns:xlink="http://www.w3.org/1999/xlink" x="0px" y="0px"
	 viewBox="0 0 324.7 115.6" style="enable-background:new 0 0 324.7 115.6;" xml:space="preserve">
<style type="text/css">
	.st0{fill:#AD0000;}
</style>
<rect id="bar" y="107.6" class="st0" width="324" height="8"/>
<g>
	<path class="st0" d="M2.6,83.5h3.2V63.4H2.6v-1.8h8.9c4.9,0,8.7,2.9,8.7,7.3c0,4.6-3.4,7.5-8.5,7.5c-1.4,0-3,0-3.8-0.1v7.1h3.3v1.8
		H2.6V83.5z M18.1,69c0-3.6-2.9-5.6-6.5-5.6H7.8v11.2c0.9,0,2.4,0.1,3.9,0.1C15.6,74.6,18.1,72.5,18.1,69z"/>
	<path class="st0" d="M20.6,83.5h2.4l7.6-20.1h-2.7v-1.8h9.6v1.8h-2.7l7.6,20.1h2.4v1.8h-7.4v-1.8h2.8l-2.5-6.7h-10l-2.5,6.7h2.9
		v1.8h-7.4V83.5z M36.9,75l-4.4-11.8L28.2,75H36.9z"/>
	<path class="st0" d="M46.9,81c0-1.2,0.8-2,1.7-2s1.5,0.6,1.5,1.5c0,0.7-0.3,1.2-0.7,1.7c0.8,0.9,2.7,1.7,5.2,1.7
		c3.4,0,5.4-1.8,5.4-4.6c0-2.7-2.4-3.9-5.2-5c-4-1.5-7-3.1-7-7c0-3.6,2.8-6.1,7.1-6.1c3.7,0,6.7,2.2,6.7,4.5c0,1.2-0.8,1.8-1.6,1.8
		c-0.9,0-1.6-0.7-1.6-1.6c0-0.6,0.3-1.1,0.6-1.5c-0.6-0.8-2.7-1.4-4.2-1.4c-3.1,0-5,1.7-5,4.1c0,2.7,2.3,3.9,5.6,5.2
		c3.7,1.5,6.6,3,6.6,6.8c0,4-3.2,6.6-7.5,6.6C49.9,85.7,46.9,83.1,46.9,81z"/>
	<path class="st0" d="M70.9,83.5h3.3V63.3h-6.7v3.8h-2v-5.5H85v5.5h-2v-3.8h-6.7v20.2h3.3v1.8h-8.7V83.5z"/>
	<path class="st0" d="M85.7,83.5h2.4l7.6-20.1h-2.7v-1.8h9.6v1.8h-2.7l7.6,20.1h2.4v1.8h-7.4v-1.8h2.8l-2.5-6.7h-10l-2.5,6.7h2.9
		v1.8h-7.4V83.5z M102.1,75l-4.4-11.8L93.3,75H102.1z"/>
	<path class="st0" d="M121,73.6c0-7.4,5.7-12.5,11.8-12.5c4.8,0,8.7,3.1,8.7,5.9c0,1.2-0.8,2.1-1.9,2.1c-0.9,0-1.6-0.7-1.6-1.6
		c0-0.8,0.6-1.4,1.2-1.5c-0.6-1.2-3-3-6.4-3c-5.8,0-9.8,5.1-9.8,10.6c0,5.2,4.1,10.3,9.9,10.3c2.9,0,5.3-1,7.6-3l1.1,1.5
		c-2.4,2.3-5.7,3.4-8.7,3.4C125.6,85.7,121,79.7,121,73.6z"/>
	<path class="st0" d="M143.9,83.5h2.4l7.6-20.1h-2.7v-1.8h9.6v1.8H158l7.6,20.1h2.4v1.8h-7.4v-1.8h2.8l-2.5-6.7h-10l-2.5,6.7h2.9
		v1.8h-7.4V83.5z M160.3,75l-4.4-11.8L151.5,75H160.3z"/>
	<path class="st0" d="M170.2,81c0-1.2,0.8-2,1.7-2c0.9,0,1.5,0.6,1.5,1.5c0,0.7-0.3,1.2-0.7,1.7c0.8,0.9,2.7,1.7,5.2,1.7
		c3.4,0,5.4-1.8,5.4-4.6c0-2.7-2.4-3.9-5.2-5c-4-1.5-7-3.1-7-7c0-3.6,2.8-6.1,7.1-6.1c3.7,0,6.7,2.2,6.7,4.5c0,1.2-0.8,1.8-1.6,1.8
		c-0.9,0-1.6-0.7-1.6-1.6c0-0.6,0.3-1.1,0.6-1.5c-0.6-0.8-2.7-1.4-4.2-1.4c-3.1,0-5,1.7-5,4.1c0,2.7,2.3,3.9,5.6,5.2
		c3.7,1.5,6.6,3,6.6,6.8c0,4-3.2,6.6-7.5,6.6C173.2,85.7,170.2,83.1,170.2,81z"/>
	<path class="st0" d="M187.9,83.5h2.4l7.6-20.1h-2.7v-1.8h9.6v1.8H202l7.6,20.1h2.4v1.8h-7.4v-1.8h2.8l-2.5-6.7h-10l-2.5,6.7h2.9
		v1.8h-7.4V83.5z M204.3,75l-4.4-11.8L195.5,75H204.3z"/>
	<path class="st0" d="M214.6,83.5h3.2V63.4h-3.2v-1.8h8.6v1.8h-3.3v20.1h9v-3.7h2v5.5h-16.2V83.5z"/>
	<path class="st0" d="M234.7,83.5h3.3V63.4h-3.3v-1.8h8.7v1.8h-3.3v20.1h3.3v1.8h-8.7V83.5z"/>
	<path class="st0" d="M252.3,65.1v18.4h3.2v1.8h-8.3v-1.8h3.2V63.4h-3.2v-1.8h5l14.6,19.5V63.4h-3.2v-1.8h8.2v1.8h-3.1v22h-1.2
		L252.3,65.1z"/>
	<path class="st0" d="M275.3,73.7c0-7.6,5.8-12.5,12.2-12.5c5.3,0,8.7,3,8.7,5.4c0,1.2-0.7,1.9-1.7,1.9c-0.9,0-1.6-0.7-1.6-1.6
		c0-0.6,0.3-1.1,0.8-1.4c-1-1.2-3.3-2.4-6.3-2.4c-6,0-10,4.8-10,10.7c0,6.1,4.4,10.2,9.6,10.2c2.8,0,5.3-0.9,7.6-2.6v-5.5h-6.8v-1.8
		h8.9v11.2h-1.9v-2.2c-2.2,1.6-4.6,2.6-7.8,2.6C280.9,85.7,275.3,81.2,275.3,73.7z"/>
	<path class="st0" d="M300.6,83.5h2.4l7.6-20.1h-2.7v-1.8h9.6v1.8h-2.7l7.6,20.1h2.4v1.8h-7.4v-1.8h2.8l-2.5-6.7h-10l-2.5,6.7h2.9
		v1.8h-7.4V83.5z M317,75l-4.4-11.8L308.2,75H317z"/>
</g>
<g id="rolling_pin">
	<g>
		<path class="st0" d="M126.3,4.4c-1.1,0-1.9,0.5-1.9,1.6v1.5c-5.2-0.1-9.9-0.5-12.1-1.2c-0.2-0.1-0.4-0.1-0.6-0.2
			c-6.1-2.6-10.9-1.1-10.9-1.1c-1.3,0.6-1.9,1.3-2,2c0,0-2.8,0.9-2.6,3.8c0.2,2.4,2.6,2.9,2.6,2.9c0.1,0.7,0.7,1.4,2,2
			c0,0,4.8,1.5,10.9-1.1c0.2-0.1,0.4-0.1,0.6-0.2c2.3-0.7,7-1.1,12.1-1.2v1.6c0,1.1,0.8,2.2,1.9,2.2h1.1V4.4H126.3z"/>
		<polygon class="st0" points="195.3,0 131.8,0 131.8,4 131.8,16.8 131.8,20.7 195.3,20.7 		"/>
	</g>
	<path class="st0" d="M199.8,4.4c1.1,0,2.1,0.5,2.1,1.6v1.5c5.2-0.1,9.8-0.5,12-1.2c0.2-0.1,0.3-0.1,0.5-0.2
		c6.1-2.6,10.9-1.1,10.9-1.1c1.3,0.6,1.9,1.3,2,2c0,0,2.8,0.9,2.6,3.8c-0.2,2.4-2.6,2.9-2.6,2.9c-0.1,0.7-0.7,1.4-2,2
		c0,0-4.8,1.5-10.9-1.1c-0.2-0.1-0.3-0.1-0.5-0.2c-2.3-0.7-6.9-1.1-12-1.2v1.6c0,1.1-1,2.2-2.1,2.2H199V4.4H199.8z"/>
</g>
</svg>
